<?xml version="1.0" standalone="no"?>
<!DOCTYPE svg PUBLIC "-//W3C//DTD SVG 20010904//EN"
 "http://www.w3.org/TR/2001/REC-SVG-20010904/DTD/svg10.dtd">
<svg version="1.0" xmlns="http://www.w3.org/2000/svg"
 width="512.000000pt" height="512.000000pt" viewBox="0 0 512.000000 512.000000"
 preserveAspectRatio="xMidYMid meet">

<g transform="translate(0.000000,512.000000) scale(0.100000,-0.100000)"
fill="#000000" stroke="none">
<path d="M2504 4202 c-55 -44 -55 -114 -2 -156 l32 -24 -109 -241 c-60 -133
-113 -241 -118 -241 -4 0 -64 44 -133 97 -93 72 -123 101 -118 112 4 9 9 33
12 53 3 30 -1 42 -22 62 -54 55 -146 18 -146 -59 0 -39 36 -85 66 -85 15 0 16
-15 9 -162 -4 -90 -9 -165 -11 -167 -2 -3 -63 13 -136 35 -125 37 -131 40
-132 66 -4 78 -122 94 -137 18 -10 -47 38 -99 80 -85 12 4 34 -28 95 -140 43
-80 84 -145 91 -145 8 0 176 27 374 60 l361 59 361 -59 c198 -33 366 -60 374
-60 7 0 48 65 91 145 61 112 83 144 95 140 42 -14 90 38 80 85 -15 76 -133 60
-137 -18 -1 -26 -7 -29 -132 -66 -73 -22 -134 -38 -136 -35 -2 2 -7 77 -11
167 -7 147 -6 162 9 162 30 0 66 46 66 85 0 77 -92 114 -146 59 -21 -20 -25
-32 -22 -62 3 -20 8 -44 12 -53 5 -11 -25 -40 -118 -112 -69 -53 -129 -97
-133 -97 -5 0 -58 108 -118 241 l-109 241 32 24 c74 58 35 174 -58 174 -19 0
-45 -8 -56 -18z"/>
<path d="M2385 3157 l-130 -22 -3 -465 -2 -465 247 -143 c299 -172 288 -165
241 -156 l-38 6 0 -355 0 -356 -64 -45 c-35 -26 -69 -46 -76 -46 -7 0 -41 20
-76 46 l-64 45 0 235 0 234 -85 0 -85 0 2 -281 3 -282 153 -104 152 -104 153
104 152 104 2 469 3 469 -225 129 -225 129 0 342 0 343 70 12 c54 9 86 9 140
0 l70 -12 0 -234 0 -234 85 0 85 0 -2 307 -3 308 -135 22 c-164 27 -181 27
-345 0z"/>
<path d="M2093 3108 l-53 -10 0 -789 0 -790 31 -45 c17 -25 29 -47 27 -49 -2
-2 -71 42 -153 99 l-150 103 -2 704 c-2 387 -5 709 -7 715 -3 8 -19 9 -53 3
-26 -5 -63 -11 -81 -14 l-32 -6 2 -746 3 -746 290 -198 c160 -110 291 -199
293 -199 1 0 2 445 2 990 l0 990 -32 -1 c-18 -1 -57 -6 -85 -11z"/>
<path d="M2910 2129 l0 -991 28 19 c15 10 53 36 85 57 l57 39 0 422 0 423 139
81 c77 45 143 81 146 81 4 0 -3 -12 -14 -26 -20 -26 -21 -37 -21 -415 0 -214
2 -389 5 -389 3 0 41 25 85 56 l80 56 0 743 0 743 -27 6 c-63 13 -526 86 -544
86 -19 0 -19 -21 -19 -991z m418 532 l-3 -225 -115 -67 c-63 -38 -118 -68
-122 -69 -5 0 -8 141 -8 313 l0 313 125 -20 125 -20 -2 -225z"/>
</g>
</svg>
